<svg width="57" height="59" viewBox="0 0 57 59" fill="none" xmlns="http://www.w3.org/2000/svg">
<path d="M55.5142 18.6583C56.6808 18.3759 57.2643 20.0126 56.1821 20.5319L38.1521 29.1824C37.4455 29.5214 37.3857 30.5044 38.0459 30.9265L55.3117 41.9659C56.3288 42.6162 55.5364 44.1776 54.4111 43.7406L35.7636 36.4994C35.0061 36.2052 34.2326 36.8895 34.4323 37.6773L39.4646 57.5263C39.7628 58.7025 38.1022 59.2945 37.5891 58.1949L28.9304 39.6386C28.5868 38.9022 27.5548 38.8615 27.1542 39.5685L17.2926 56.9729C16.6974 58.0232 15.096 57.3152 15.4724 56.1681L21.8612 36.6961C22.1055 35.9515 21.4374 35.228 20.6758 35.4124L1.23945 40.1182C0.0728422 40.4006 -0.510641 38.7639 0.57157 38.2446L18.6016 29.5941C19.3081 29.2551 19.3679 28.2721 18.7077 27.85L1.44191 16.8106C0.424858 16.1603 1.21728 14.5989 2.34258 15.0359L20.99 22.2772C21.7476 22.5713 22.5211 21.887 22.3214 21.0992L17.289 1.25015C16.9908 0.0739985 18.6515 -0.517999 19.1646 0.581554L27.8232 19.1379C28.1669 19.8743 29.1989 19.915 29.5995 19.208L39.4611 1.80362C40.0562 0.753325 41.6576 1.46134 41.2813 2.60835L34.8924 22.0804C34.6481 22.825 35.3163 23.5485 36.0779 23.3641L55.5142 18.6583Z" fill="#FD7960"/>
</svg>
